<mxfile host="app.diagrams.net" agent="Mozilla/5.0 (Windows NT 10.0; Win64; x64) AppleWebKit/537.36 (KHTML, like Gecko) Chrome/126.0.0.0 Safari/537.36 Edg/126.0.0.0" version="24.7.5">
  <diagram name="Page-1" id="643vSzZ1-1EO-Ge_J5V9">
    <mxGraphModel dx="1123" dy="1038" grid="1" gridSize="10" guides="1" tooltips="1" connect="1" arrows="1" fold="1" page="1" pageScale="1" pageWidth="827" pageHeight="1169" math="0" shadow="0">
      <root>
        <mxCell id="0" />
        <mxCell id="1" parent="0" />
        <mxCell id="pu3F4DTKRnOthcNQjJ4w-5" value="Jour" style="rounded=1;whiteSpace=wrap;html=1;arcSize=40;fontColor=#000000;fillColor=#ffffc0;strokeColor=#ff0000;" vertex="1" parent="1">
          <mxGeometry x="170" y="361" width="120" height="40" as="geometry" />
        </mxCell>
        <mxCell id="pu3F4DTKRnOthcNQjJ4w-7" value="Nuit" style="rounded=1;whiteSpace=wrap;html=1;arcSize=40;fontColor=#000000;fillColor=#ffffc0;strokeColor=#ff0000;" vertex="1" parent="1">
          <mxGeometry x="170" y="520" width="120" height="40" as="geometry" />
        </mxCell>
        <mxCell id="pu3F4DTKRnOthcNQjJ4w-8" value="Couché de soleil" style="html=1;verticalAlign=bottom;endArrow=block;curved=0;rounded=0;exitX=0.35;exitY=0.975;exitDx=0;exitDy=0;exitPerimeter=0;entryX=0.183;entryY=-0.075;entryDx=0;entryDy=0;entryPerimeter=0;" edge="1" parent="1" source="pu3F4DTKRnOthcNQjJ4w-5" target="pu3F4DTKRnOthcNQjJ4w-7">
          <mxGeometry width="80" relative="1" as="geometry">
            <mxPoint x="370" y="730" as="sourcePoint" />
            <mxPoint x="450" y="730" as="targetPoint" />
          </mxGeometry>
        </mxCell>
        <mxCell id="pu3F4DTKRnOthcNQjJ4w-9" value="Levé de soleil" style="html=1;verticalAlign=bottom;endArrow=open;dashed=1;endSize=8;curved=0;rounded=0;entryX=0.75;entryY=1;entryDx=0;entryDy=0;exitX=0.842;exitY=0.075;exitDx=0;exitDy=0;exitPerimeter=0;" edge="1" parent="1" source="pu3F4DTKRnOthcNQjJ4w-7" target="pu3F4DTKRnOthcNQjJ4w-5">
          <mxGeometry x="-0.4472" y="8" relative="1" as="geometry">
            <mxPoint x="450" y="730" as="sourcePoint" />
            <mxPoint x="370" y="730" as="targetPoint" />
            <Array as="points">
              <mxPoint x="270" y="460" />
            </Array>
            <mxPoint as="offset" />
          </mxGeometry>
        </mxCell>
        <mxCell id="pu3F4DTKRnOthcNQjJ4w-12" value="Absent temporaire" style="rounded=1;whiteSpace=wrap;html=1;arcSize=40;fontColor=#000000;fillColor=#ffffc0;strokeColor=#ff0000;" vertex="1" parent="1">
          <mxGeometry x="500" y="410" width="120" height="40" as="geometry" />
        </mxCell>
        <mxCell id="pu3F4DTKRnOthcNQjJ4w-13" value="Vacances" style="rounded=1;whiteSpace=wrap;html=1;arcSize=40;fontColor=#000000;fillColor=#ffffc0;strokeColor=#ff0000;" vertex="1" parent="1">
          <mxGeometry x="680" y="460" width="120" height="40" as="geometry" />
        </mxCell>
        <mxCell id="pu3F4DTKRnOthcNQjJ4w-14" value="Présent" style="rounded=1;whiteSpace=wrap;html=1;arcSize=40;fontColor=#000000;fillColor=#ffffc0;strokeColor=#ff0000;" vertex="1" parent="1">
          <mxGeometry x="350" y="380" width="120" height="40" as="geometry" />
        </mxCell>
        <mxCell id="pu3F4DTKRnOthcNQjJ4w-15" value="dispatch" style="html=1;verticalAlign=bottom;endArrow=block;curved=0;rounded=0;exitX=0.658;exitY=-0.025;exitDx=0;exitDy=0;exitPerimeter=0;entryX=0.5;entryY=0;entryDx=0;entryDy=0;" edge="1" parent="1" source="pu3F4DTKRnOthcNQjJ4w-5" target="pu3F4DTKRnOthcNQjJ4w-14">
          <mxGeometry width="80" relative="1" as="geometry">
            <mxPoint x="460" y="730" as="sourcePoint" />
            <mxPoint x="540" y="730" as="targetPoint" />
            <Array as="points">
              <mxPoint x="280" y="340" />
              <mxPoint x="320" y="340" />
              <mxPoint x="370" y="350" />
            </Array>
          </mxGeometry>
        </mxCell>
        <mxCell id="pu3F4DTKRnOthcNQjJ4w-16" value="Btn absent tempo" style="html=1;verticalAlign=bottom;endArrow=block;curved=0;rounded=0;exitX=0.408;exitY=0.025;exitDx=0;exitDy=0;exitPerimeter=0;entryX=0.608;entryY=-0.1;entryDx=0;entryDy=0;entryPerimeter=0;" edge="1" parent="1" source="pu3F4DTKRnOthcNQjJ4w-5" target="pu3F4DTKRnOthcNQjJ4w-12">
          <mxGeometry width="80" relative="1" as="geometry">
            <mxPoint x="460" y="730" as="sourcePoint" />
            <mxPoint x="540" y="730" as="targetPoint" />
            <Array as="points">
              <mxPoint x="230" y="330" />
              <mxPoint x="270" y="300" />
              <mxPoint x="330" y="280" />
              <mxPoint x="400" y="280" />
              <mxPoint x="450" y="290" />
              <mxPoint x="510" y="330" />
              <mxPoint x="560" y="370" />
            </Array>
          </mxGeometry>
        </mxCell>
        <mxCell id="pu3F4DTKRnOthcNQjJ4w-17" value="Btn vacances" style="html=1;verticalAlign=bottom;endArrow=block;curved=0;rounded=0;entryX=0.608;entryY=-0.1;entryDx=0;entryDy=0;entryPerimeter=0;" edge="1" parent="1">
          <mxGeometry width="80" relative="1" as="geometry">
            <mxPoint x="210" y="360" as="sourcePoint" />
            <mxPoint x="754" y="460" as="targetPoint" />
            <Array as="points">
              <mxPoint x="230" y="270" />
              <mxPoint x="290" y="240" />
              <mxPoint x="380" y="240" />
              <mxPoint x="470" y="250" />
              <mxPoint x="570" y="290" />
              <mxPoint x="691" y="384" />
              <mxPoint x="741" y="424" />
            </Array>
          </mxGeometry>
        </mxCell>
      </root>
    </mxGraphModel>
  </diagram>
</mxfile>
